<?xml version="1.0" encoding="iso-8859-1"?>
<!-- Generator: Adobe Illustrator 16.0.0, SVG Export Plug-In . SVG Version: 6.00 Build 0)  -->
<!DOCTYPE svg PUBLIC "-//W3C//DTD SVG 1.1//EN" "http://www.w3.org/Graphics/SVG/1.1/DTD/svg11.dtd">
<svg version="1.1" id="Capa_1" xmlns="http://www.w3.org/2000/svg" xmlns:xlink="http://www.w3.org/1999/xlink" x="0px" y="0px"
	 width="40px" height="40px" viewBox="0 0 31.262 31.262" style="enable-background:new 0 0 31.262 31.262;"
	 xml:space="preserve">
<g>
	<g fill="#34ebcc">
		<path d="M15.284,5.535c0-1.727,0.347-3.126,0.347-3.126s0.347,1.399,0.347,3.126c0,0.366-0.018,0.712-0.043,1.038
			c0.476-0.548,1.344-1.735,1.344-3.122C17.279,1.545,15.631,0,15.631,0s-1.647,1.545-1.647,3.451c0,1.386,0.868,2.573,1.342,3.122
			C15.302,6.247,15.284,5.901,15.284,5.535z"/>
		<path d="M15.979,25.727c0,1.728-0.347,3.127-0.347,3.127s-0.347-1.399-0.347-3.127c0-0.365,0.017-0.712,0.042-1.037
			c-0.475,0.547-1.342,1.734-1.342,3.121c0,1.906,1.647,3.451,1.647,3.451s1.648-1.545,1.648-3.451c0-1.386-0.869-2.572-1.344-3.121
			C15.961,25.015,15.979,25.361,15.979,25.727z"/>
		<path d="M10.935,7.883c-0.116-0.171-0.235-0.355-0.352-0.557c-0.547-0.947-0.799-1.824-0.799-1.824s0.633,0.658,1.181,1.604
			c0.115,0.201,0.215,0.396,0.305,0.583c0.087-0.452,0.187-1.378-0.251-2.138c-0.605-1.046-1.998-1.372-1.998-1.372
			s-0.415,1.37,0.188,2.415C9.648,7.356,10.501,7.732,10.935,7.883z"/>
		<path d="M20.328,23.38c0.117,0.171,0.234,0.354,0.352,0.558c0.547,0.946,0.801,1.823,0.801,1.823s-0.637-0.657-1.182-1.604
			c-0.117-0.201-0.217-0.396-0.307-0.584c-0.086,0.453-0.186,1.379,0.254,2.138c0.604,1.046,1.998,1.372,1.998,1.372
			s0.414-1.37-0.191-2.415C21.613,23.906,20.762,23.529,20.328,23.38z"/>
		<path d="M6.572,15.438c-0.348-0.301-1.101-0.85-1.978-0.851c-1.208,0-2.187,1.043-2.187,1.043s0.979,1.044,2.186,1.044
			c0.879,0,1.631-0.549,1.979-0.85c-0.207,0.015-0.426,0.025-0.658,0.025c-1.094,0-1.98-0.22-1.98-0.22s0.887-0.22,1.98-0.22
			C6.147,15.411,6.365,15.422,6.572,15.438z"/>
		<path d="M24.689,15.824c0.348,0.301,1.1,0.85,1.977,0.85c1.209,0,2.188-1.043,2.188-1.043s-0.979-1.043-2.188-1.043
			c-0.877,0-1.629,0.549-1.977,0.85c0.207-0.016,0.426-0.025,0.656-0.025c1.096,0,1.982,0.22,1.982,0.22s-0.887,0.222-1.982,0.22
			C25.115,15.851,24.896,15.84,24.689,15.824z"/>
		<path d="M10.963,24.154c-0.546,0.946-1.181,1.604-1.181,1.604s0.253-0.877,0.799-1.825c0.118-0.2,0.237-0.385,0.354-0.556
			c-0.435,0.15-1.287,0.527-1.727,1.288c-0.604,1.046-0.19,2.415-0.19,2.415s1.394-0.326,1.998-1.37
			c0.439-0.761,0.339-1.688,0.253-2.14C11.18,23.758,11.08,23.953,10.963,24.154z"/>
		<path d="M20.299,7.107c0.547-0.947,1.182-1.606,1.182-1.606S21.229,6.38,20.68,7.327c-0.113,0.201-0.234,0.385-0.352,0.556
			c0.436-0.15,1.287-0.527,1.725-1.287c0.605-1.045,0.191-2.416,0.191-2.416s-1.395,0.327-1.998,1.372
			c-0.439,0.761-0.34,1.686-0.252,2.138C20.084,7.502,20.184,7.307,20.299,7.107z"/>
		<path d="M5.905,8.114C4.256,7.161,2.093,7.815,2.093,7.815s0.515,2.2,2.165,3.153c1.202,0.693,2.663,0.535,3.375,0.398
			c-0.295-0.142-0.604-0.3-0.92-0.482C5.217,10.02,4.179,9.02,4.179,9.02s1.386,0.399,2.881,1.263
			c0.316,0.183,0.607,0.372,0.877,0.556C7.701,10.152,7.108,8.807,5.905,8.114z"/>
		<path d="M27.004,20.295c-1.203-0.693-2.662-0.536-3.375-0.398c0.293,0.143,0.604,0.299,0.918,0.482
			c1.496,0.863,2.535,1.863,2.535,1.863s-1.385-0.398-2.881-1.262c-0.316-0.183-0.607-0.371-0.877-0.556
			c0.236,0.687,0.832,2.03,2.033,2.724c1.65,0.952,3.811,0.299,3.811,0.299S28.652,21.247,27.004,20.295z"/>
		<path d="M4.179,22.242c0,0,1.039-1.002,2.534-1.865c0.317-0.182,0.625-0.339,0.921-0.482c-0.712-0.137-2.175-0.295-3.375,0.399
			c-1.651,0.952-2.166,3.151-2.166,3.151s2.162,0.653,3.812-0.299c1.202-0.693,1.796-2.039,2.033-2.724
			c-0.271,0.185-0.561,0.372-0.876,0.556C5.565,21.842,4.179,22.242,4.179,22.242z"/>
		<path d="M27.082,9.019c0,0-1.039,1-2.533,1.864c-0.316,0.183-0.625,0.341-0.92,0.482c0.713,0.138,2.174,0.295,3.373-0.398
			c1.652-0.954,2.166-3.152,2.166-3.152s-2.16-0.653-3.811,0.299c-1.203,0.694-1.795,2.038-2.033,2.723
			c0.27-0.183,0.561-0.372,0.877-0.554C25.697,9.419,27.082,9.019,27.082,9.019z"/>
		<path d="M15.631,14.893c0,0-4.119-3.736-6.75-3.409c5.057,2.655,6.75,12.456,6.75,12.456s0.497-8.806,6.75-12.456
			C19.039,10.873,15.631,14.893,15.631,14.893z"/>
		<circle cx="15.631" cy="11.421" r="1.693"/>
	</g>
</g>
</svg>
